<svg width="149" height="117" viewBox="0 0 149 117" fill="none" xmlns="http://www.w3.org/2000/svg">
<rect width="149" height="117" fill="#CDC7B0"/>
<rect width="149" height="117" fill="white"/>
<g filter="url(#filter0_i_18_2)">
<path d="M14.1624 63.0318L14.1813 61.8308L15.0748 61.6574L15.1625 56.1092L13.8443 56.0884L13.777 57.0074L12.2245 56.9828L12.2642 54.4695L20.191 54.5947L20.1512 57.1081L18.5811 57.0833L18.5488 56.1627L17.2189 56.1417L17.1312 61.6899L18.0188 61.8914L17.9998 63.0924L14.1624 63.0318ZM20.9467 63.139L20.9657 61.938L21.8591 61.7646L21.923 57.7221L21.0355 57.5206L21.0545 56.3137L27.0714 56.4088L27.0365 58.6175L25.5249 58.5936L25.4825 57.9424L23.9651 57.9185L23.9455 59.1605L26.5877 59.2022L26.5688 60.3974L23.9266 60.3557L23.9064 61.6328L25.4355 61.657L25.4926 61.0074L26.9983 61.0312L26.9635 63.2341L20.9467 63.139ZM31.145 63.3998C30.5318 63.3901 30.0024 63.2665 29.5569 63.0289C29.1153 62.7915 28.7748 62.4618 28.5353 62.04C28.2998 61.6144 28.1865 61.1223 28.1953 60.5637L28.2181 59.1225C28.2269 58.564 28.3557 58.0777 28.6045 57.6636C28.8571 57.2496 29.2079 56.9309 29.6568 56.7075C30.1097 56.4802 30.6427 56.3714 31.2559 56.3811C32.1386 56.3951 32.8247 56.613 33.3142 57.0348C33.8077 57.4528 34.0715 58.0625 34.1057 58.8639L34.0934 58.8989L32.1074 58.8675C32.0381 58.5539 31.9421 58.3219 31.8195 58.1715C31.7008 58.0212 31.5047 57.9438 31.2313 57.9395C30.8915 57.9341 30.6456 58.0396 30.4938 58.256C30.3459 58.4686 30.2689 58.7662 30.2628 59.149L30.24 60.5961C30.2339 60.9788 30.3033 61.2827 30.4482 61.5077C30.5971 61.7288 30.8375 61.842 31.1695 61.8472C31.3804 61.8506 31.5391 61.8257 31.6454 61.7727C31.7556 61.7198 31.8391 61.6273 31.8959 61.4954C31.9527 61.3595 32.0085 61.1709 32.0631 60.9296L34.0491 60.961L34.0603 60.9963C34.0205 61.5348 33.8806 61.9838 33.6405 62.3434C33.4043 62.703 33.0758 62.9712 32.655 63.1482C32.2381 63.3252 31.7348 63.4091 31.145 63.3998ZM34.6442 63.3554L34.6632 62.1544L35.5508 61.9809L35.6147 57.9385L34.733 57.737L34.752 56.5301L38.2321 56.5851L38.213 57.792L37.6652 57.9709L37.6457 59.2012L38.2316 59.2104L38.8779 57.99L38.9561 57.8623L38.6348 57.7987L38.6539 56.5918L41.9933 56.6445L41.9743 57.8514L41.2395 57.9922L40.0172 59.6899L41.3558 62.1312L41.9162 62.269L41.8972 63.47L38.6163 63.4182L38.6353 62.2172L38.9291 62.1691L38.8661 62.0743L38.3226 60.8703L37.6195 60.8592L37.6013 62.0133L38.1432 62.2094L38.1242 63.4104L34.6442 63.3554ZM42.4713 63.4791L42.4903 62.2781L43.3721 62.1045L43.4629 56.3572L42.5871 56.1558L42.6061 54.9489L43.4849 54.9628L45.5765 54.9959L48.9116 60.5102L48.9468 60.5107L49.011 56.4448L47.895 56.2397L47.9141 55.0328L50.8551 55.0793L51.7398 55.0933L51.7207 56.3001L50.8331 56.4736L50.7203 63.6095L48.6932 63.5774L45.2918 58.1793L45.2566 58.1787L45.1941 62.1333L46.316 62.3385L46.297 63.5396L42.4713 63.4791ZM55.3937 63.8005C54.7883 63.7909 54.2531 63.6633 53.7882 63.4177C53.3272 63.1721 52.9691 62.8363 52.7141 62.4103C52.4592 61.9805 52.336 61.4921 52.3446 60.9453L52.3674 59.5041C52.376 58.9573 52.5145 58.477 52.7828 58.0632C53.0512 57.6455 53.4196 57.3232 53.8881 57.0962C54.3605 56.8654 54.8994 56.7547 55.5048 56.7643C56.1102 56.7738 56.6434 56.9014 57.1045 57.147C57.5655 57.3887 57.9236 57.7225 58.1786 58.1485C58.4376 58.5706 58.5628 59.0551 58.5541 59.6019L58.5314 61.0431C58.5227 61.5938 58.3841 62.078 58.1158 62.4957C57.8474 62.9134 57.479 63.2377 57.0104 63.4686C56.5419 63.6995 56.003 63.8101 55.3937 63.8005ZM55.4184 62.2363C55.7386 62.2413 55.9925 62.1203 56.1801 61.8732C56.3715 61.6262 56.4698 61.3387 56.475 61.0106L56.4978 59.5635C56.503 59.2354 56.4138 58.9488 56.2301 58.7037C56.0466 58.4547 55.7966 58.3277 55.4802 58.3227C55.1443 58.3174 54.8827 58.4343 54.6953 58.6736C54.5118 58.909 54.4175 59.1947 54.4122 59.5306L54.3893 60.9776C54.3841 61.3057 54.4713 61.5962 54.651 61.8491C54.8306 62.1019 55.0864 62.231 55.4184 62.2363ZM60.7269 63.7676L60.7458 62.5666L61.6276 62.393L61.6889 58.5145L60.8335 58.501L60.7683 59.2911L59.2568 59.2672L59.2939 56.9179L66.2188 57.0273L66.1817 59.3767L64.6702 59.3528L64.6182 58.5608L63.7511 58.5471L63.6898 62.4256L64.5657 62.6269L64.5467 63.8279L60.7269 63.7676ZM67.1714 63.8694L67.1904 62.6684L68.0838 62.495L68.1477 58.4525L67.2602 58.251L67.2792 57.0441L73.2961 57.1392L73.2612 59.3479L71.7496 59.324L71.7072 58.6728L70.1898 58.6489L70.1702 59.8909L72.8124 59.9327L72.7935 61.1278L70.1513 61.0861L70.1311 62.3633L71.6602 62.3874L71.7173 61.7378L73.223 61.7616L73.1882 63.9645L67.1714 63.8694Z" fill="#B4540F" fill-opacity="0.96"/>
</g>
<path d="M83.9621 60.2207C84.2063 60.4648 84.602 60.4648 84.8461 60.2207L85.2879 59.7789C85.532 59.5348 85.532 59.1391 85.2879 58.8949L83.8926 57.5L85.2875 56.1047C85.5316 55.8605 85.5316 55.4648 85.2875 55.2207L84.8457 54.7789C84.6016 54.5348 84.2059 54.5348 83.9617 54.7789L81.6828 57.0578C81.4387 57.302 81.4387 57.6977 81.6828 57.9418L83.9621 60.2207ZM87.7125 59.7793L88.1543 60.2211C88.3984 60.4652 88.7941 60.4652 89.0383 60.2211L91.3172 57.9422C91.5613 57.698 91.5613 57.3023 91.3172 57.0582L89.0383 54.7793C88.7941 54.5352 88.3984 54.5352 88.1543 54.7793L87.7125 55.2211C87.4684 55.4652 87.4684 55.8609 87.7125 56.1051L89.1074 57.5L87.7125 58.8953C87.4684 59.1395 87.4684 59.5352 87.7125 59.7793ZM98.375 66.25H88.9039C88.875 67.0238 88.3293 67.5 87.625 67.5H85.25C84.5199 67.5 83.9602 66.8176 83.9699 66.25H74.625C74.2812 66.25 74 66.5312 74 66.875V67.5C74 68.875 75.125 70 76.5 70H96.5C97.875 70 99 68.875 99 67.5V66.875C99 66.5312 98.7188 66.25 98.375 66.25ZM96.5 51.875C96.5 50.8438 95.6562 50 94.625 50H78.375C77.3438 50 76.5 50.8438 76.5 51.875V65H96.5V51.875ZM94 62.5H79V52.5H94V62.5Z" fill="black"/>
<defs>
<filter id="filter0_i_18_2" x="12.1276" y="54.4695" width="61.1954" height="13.6122" filterUnits="userSpaceOnUse" color-interpolation-filters="sRGB">
<feFlood flood-opacity="0" result="BackgroundImageFix"/>
<feBlend mode="normal" in="SourceGraphic" in2="BackgroundImageFix" result="shape"/>
<feColorMatrix in="SourceAlpha" type="matrix" values="0 0 0 0 0 0 0 0 0 0 0 0 0 0 0 0 0 0 127 0" result="hardAlpha"/>
<feOffset dy="4"/>
<feGaussianBlur stdDeviation="2"/>
<feComposite in2="hardAlpha" operator="arithmetic" k2="-1" k3="1"/>
<feColorMatrix type="matrix" values="0 0 0 0 0 0 0 0 0 0 0 0 0 0 0 0 0 0 0.25 0"/>
<feBlend mode="normal" in2="shape" result="effect1_innerShadow_18_2"/>
</filter>
</defs>
</svg>
